<?xml version="1.0" encoding="UTF-8"?><svg id="Camada_1" xmlns="http://www.w3.org/2000/svg" viewBox="0 0 2874.91 1061.33"><defs><style>.cls-1,.cls-2{fill:#fff;}.cls-2,.cls-3{fill-rule:evenodd;}.cls-3{fill:#e5a923;}</style></defs><path class="cls-2" d="M1849.19,780.26l166.38-447.35h-194.84l-76.84,276.5c-13.23,51.12-23,96.26-32.76,144.96h-3.64c-8.56-47.51-19.54-95.03-34.12-144.96l-80.44-276.5h-201.03l162.95,447.35h294.34Z"/><polygon class="cls-2" points="1121.4 780.26 1306.49 780.26 1306.49 332.9 1120.52 332.9 1120.52 469.28 1121.4 469.28 1121.4 780.26"/><path class="cls-2" d="M2704.44,299.79c16.77-16.77,27.27-40.13,27.27-65.87s-10.5-49.05-27.27-65.87c-16.81-16.77-40.14-27.27-65.87-27.27s-48.92,10.49-65.7,27.27c-16.98,16.81-27.31,40.17-27.31,65.87s10.33,49.09,27.31,65.87c16.77,16.81,39.96,27.31,65.7,27.31s49.06-10.49,65.87-27.31Zm51.11-65.87c0,32.27-13.03,61.62-34.34,82.68-21.08,21.13-50.24,34.34-82.64,34.34s-61.42-13.21-82.68-34.34c-21.13-21.06-34.17-50.41-34.17-82.68s13.04-61.56,34.17-82.64c21.25-21.11,50.39-34.34,82.68-34.34s61.56,13.23,82.64,34.34c21.31,21.08,34.34,50.41,34.34,82.64Z"/><path class="cls-2" d="M2673.7,164.46h-67.22l-9.09,67.27c5.13-.7,11.49-1.23,19.71-1.23,27.8,0,40.14,12.69,40.14,30.87,.17,18.7-15.23,30.38-33.1,30.38-12.83,0-24.32-4.29-30.17-7.72l-4.79,14.41c7.03,4.29,19.71,8.73,34.96,8.73,30.57,0,52.33-20.55,52.33-47.99,0-17.53-9.09-29.86-20.07-35.88-8.56-5.3-19.22-7.55-30.2-7.55-5.32,0-8.22,.17-11.46,.7l5.32-36h53.65v-15.99Z"/><path class="cls-2" d="M2552.46,780.26h5.66l-.18-1.52c-1.88,.48-3.77,1.01-5.49,1.52Z"/><path class="cls-2" d="M2288.29,780.26c-35.35-18.52-59.67-48.39-62.97-90.58h383.74c2.37-13.35,5.97-41.32,5.97-72.88,0-147.51-73.07-297.24-265.48-297.24-207.04,0-300.88,166.86-300.88,317.82,0,53.71,9.79,101.7,28.15,142.88h211.47Zm50.28-337.75c85.23,0,104.77,75.49,104.77,120.62h-219.19c4.79-49.93,36.53-120.62,114.43-120.62Z"/><g><path class="cls-1" d="M807.85,855.72v46.43h44.99v-46.43h27.25v120.81h-27.25v-50.55h-44.99v50.55h-27.42v-120.81h27.42Z"/><path class="cls-1" d="M931.72,864.5c0,7.53-5.74,13.62-14.7,13.62s-14.34-6.09-14.16-13.62c-.18-7.89,5.56-13.8,14.34-13.8s14.34,5.92,14.52,13.8Zm-28.14,112.03v-87.65h27.25v87.65h-27.25Z"/><path class="cls-1" d="M952.7,918.27c0-11.47-.36-21.33-.72-29.4h23.66l1.26,12.19h.36c6.45-9.32,16.49-14.16,29.22-14.16,19.18,0,36.39,16.67,36.39,44.63,0,31.91-20.25,46.96-39.79,46.96-10.58,0-18.82-4.3-22.76-10.04h-.36v43.56h-27.25v-93.75Zm27.25,20.62c0,2.15,.18,4.12,.54,5.74,1.79,7.35,8.07,12.91,15.95,12.91,11.83,0,18.82-9.86,18.82-24.74,0-13.98-6.27-24.56-18.46-24.56-7.71,0-14.52,5.74-16.31,13.8-.36,1.44-.54,3.23-.54,4.84v12.01Z"/><path class="cls-1" d="M1081.41,941.4c.9,11.29,12.01,16.67,24.74,16.67,9.32,0,16.85-1.26,24.2-3.58l3.58,18.46c-8.96,3.58-19.9,5.38-31.73,5.38-29.75,0-46.78-17.21-46.78-44.63,0-22.23,13.8-46.78,44.27-46.78,28.32,0,39.07,22.05,39.07,43.74,0,4.66-.54,8.78-.89,10.75h-56.46Zm32.09-18.64c0-6.63-2.87-17.75-15.42-17.75-11.47,0-16.13,10.4-16.85,17.75h32.27Z"/><path class="cls-1" d="M1155.09,917.74c0-12.91-.36-21.33-.72-28.86h23.48l.9,16.13h.72c4.48-12.73,15.24-18.1,23.66-18.1,2.51,0,3.76,0,5.74,.36v25.63c-1.97-.36-4.3-.72-7.35-.72-10.04,0-16.85,5.38-18.64,13.8-.36,1.79-.54,3.94-.54,6.09v44.45h-27.25v-58.79Z"/><path class="cls-1" d="M1271.08,976.53l-1.61-8.78h-.54c-5.74,6.99-14.7,10.75-25.1,10.75-17.74,0-28.32-12.91-28.32-26.89,0-22.76,20.44-33.7,51.44-33.52v-1.26c0-4.66-2.51-11.29-15.95-11.29-8.96,0-18.46,3.05-24.2,6.63l-5.02-17.57c6.09-3.41,18.11-7.71,34.06-7.71,29.22,0,38.54,17.21,38.54,37.82v30.47c0,8.43,.36,16.49,1.25,21.33h-24.56Zm-3.23-41.41c-14.34-.18-25.45,3.23-25.45,13.8,0,6.99,4.66,10.4,10.76,10.4,6.81,0,12.37-4.48,14.16-10.04,.36-1.43,.54-3.05,.54-4.66v-9.5Z"/><path class="cls-1" d="M1398.54,948.39c0,11.47,.36,20.79,.72,28.14h-23.66l-1.25-12.37h-.54c-3.41,5.38-11.65,14.34-27.43,14.34-17.74,0-30.83-11.11-30.83-38.18v-51.44h27.43v47.14c0,12.73,4.12,20.43,13.62,20.43,7.53,0,11.83-5.2,13.62-9.5,.72-1.61,.89-3.76,.89-5.91v-52.16h27.43v59.51Z"/><path class="cls-1" d="M1450.89,863.78v25.1h19.54v20.07h-19.54v31.73c0,10.57,2.51,15.42,10.75,15.42,3.41,0,6.1-.36,8.07-.72l.18,20.61c-3.58,1.44-10.04,2.33-17.75,2.33-8.78,0-16.13-3.05-20.43-7.53-5.02-5.2-7.53-13.62-7.53-25.99v-35.85h-11.65v-20.07h11.65v-19l26.71-6.09Z"/><path class="cls-1" d="M1571.89,931.72c0,32.09-22.76,46.79-46.24,46.79-25.63,0-45.35-16.85-45.35-45.17s18.64-46.43,46.78-46.43,44.81,18.46,44.81,44.81Zm-63.45,.9c0,15.06,6.27,26.35,17.92,26.35,10.58,0,17.39-10.57,17.39-26.35,0-13.08-5.02-26.35-17.39-26.35-13.08,0-17.92,13.44-17.92,26.35Z"/><path class="cls-1" d="M1588.76,916.84c0-10.93-.36-20.25-.72-27.96h22.94l1.25,11.83h.54c3.77-5.56,11.47-13.8,26.53-13.8,11.3,0,20.26,5.74,24.02,14.88h.36c3.23-4.48,7.17-8.07,11.3-10.57,4.84-2.87,10.21-4.3,16.67-4.3,16.85,0,29.57,11.83,29.57,38v51.62h-26.53v-47.68c0-12.73-4.12-20.08-12.9-20.08-6.27,0-10.75,4.3-12.55,9.5-.72,1.97-1.08,4.84-1.08,6.99v51.26h-26.53v-49.11c0-11.11-3.94-18.64-12.54-18.64-6.99,0-11.11,5.38-12.73,9.86-.89,2.15-1.07,4.66-1.07,6.81v51.09h-26.53v-59.69Z"/><path class="cls-1" d="M1792.76,976.53l-1.61-8.78h-.54c-5.73,6.99-14.7,10.75-25.09,10.75-17.75,0-28.32-12.91-28.32-26.89,0-22.76,20.44-33.7,51.44-33.52v-1.26c0-4.66-2.51-11.29-15.95-11.29-8.96,0-18.46,3.05-24.2,6.63l-5.02-17.57c6.09-3.41,18.11-7.71,34.06-7.71,29.22,0,38.54,17.21,38.54,37.82v30.47c0,8.43,.35,16.49,1.25,21.33h-24.56Zm-3.23-41.41c-14.34-.18-25.45,3.23-25.45,13.8,0,6.99,4.66,10.4,10.75,10.4,6.82,0,12.37-4.48,14.16-10.04,.36-1.43,.54-3.05,.54-4.66v-9.5Z"/><path class="cls-1" d="M1903.37,974.38c-4.12,1.79-11.47,3.41-20.08,3.76l-3.4,6.27c6.81,.72,12.9,5.74,12.9,12.91,0,11.65-10.22,15.77-21.69,15.77-5.73,0-10.93-1.43-14.52-3.58l3.58-10.22c3.23,1.79,6.99,3.05,9.86,3.05,3.23,0,6.45-1.25,6.27-4.66,0-3.41-3.94-5.74-13.8-6.45l6.63-13.62c-22.58-3.58-36.56-19.9-36.56-44.1,0-25.63,17.56-46.6,50.19-46.6,7.17,0,15.06,1.25,20.79,3.41l-4.3,20.25c-3.23-1.43-8.07-2.69-15.24-2.69-14.34,0-23.66,10.22-23.48,24.56,0,16.13,10.75,24.56,24.02,24.56,6.46,0,11.47-1.07,15.6-2.69l3.23,20.07Z"/><path class="cls-1" d="M1968.98,976.53l-1.61-8.78h-.54c-5.73,6.99-14.7,10.75-25.09,10.75-17.75,0-28.32-12.91-28.32-26.89,0-22.76,20.44-33.7,51.44-33.52v-1.26c0-4.66-2.51-11.29-15.95-11.29-8.96,0-18.46,3.05-24.2,6.63l-5.02-17.57c6.09-3.41,18.11-7.71,34.06-7.71,29.22,0,38.54,17.21,38.54,37.82v30.47c0,8.43,.35,16.49,1.25,21.33h-24.56Zm-40.51-100.02c-.54-15.06,5.56-23.48,14.7-23.48,4.48,0,8.07,1.79,11.65,3.58,2.87,1.79,5.37,3.58,7.53,3.58,3.05,0,4.3-1.61,4.66-8.07h12.54c.54,16.49-5.2,23.12-14.7,23.12-5.02,0-8.61-1.97-12.37-3.94-3.23-1.79-4.48-2.87-6.81-2.87-2.51,0-4.13,2.69-4.3,8.06h-12.91Zm37.28,58.62c-14.34-.18-25.45,3.23-25.45,13.8,0,6.99,4.66,10.4,10.75,10.4,6.82,0,12.37-4.48,14.16-10.04,.36-1.43,.54-3.05,.54-4.66v-9.5Z"/><path class="cls-1" d="M2100.39,931.72c0,32.09-22.77,46.79-46.25,46.79-25.63,0-45.35-16.85-45.35-45.17s18.64-46.43,46.78-46.43,44.82,18.46,44.82,44.81Zm-63.46,.9c0,15.06,6.27,26.35,17.92,26.35,10.58,0,17.39-10.57,17.39-26.35,0-13.08-5.02-26.35-17.39-26.35-13.08,0-17.92,13.44-17.92,26.35Z"/></g><path class="cls-2" d="M1076.27,196.55c58.52,0,106.04,14.58,135.2,30.34l35.3-140.12c-36.53-21.77-111.97-36.35-175.28-36.35-184.03,0-311.82,92.42-311.82,256.91v25.56h-29.96c44.89,24.81,75.43,73.71,75.43,129.99,0,42.6-17.5,80.96-45.47,107.86v209.5h186.28V469.28h142.01v-136.38h-143.24v-20.72c0-65.7,34.17-115.63,131.56-115.63Z"/><path class="cls-3" d="M501.52,143.03c-211.17,0-382.16,171.2-382.16,382.34s170.99,382.14,382.16,382.14,382.16-171.17,382.16-382.14S712.63,143.03,501.52,143.03Zm-113.72,562.45h-87.65V423.67h87.65v281.82Zm-44.44-316.46c-27.62,0-45.46-19.59-45.46-43.74s18.35-43.91,46.64-43.91,45.49,19.02,46.16,43.91c0,24.15-17.84,43.74-47.34,43.74Zm382.33,316.46h-87.65v-156.11c0-36.36-12.69-61.22-44.44-61.22-24.15,0-38.59,16.77-44.93,32.93-2.4,5.8-2.93,13.88-2.93,21.96v162.43h-87.65v-191.94c0-35.18-1.19-64.51-2.2-89.88h75.97l4.14,39.08h1.7c11.51-18.36,39.8-45.46,86.95-45.46,57.65,0,101.05,38.61,101.05,121.65v166.55Z"/></svg>