<?xml version="1.0" encoding="utf-8"?>
<!-- Generator: Adobe Illustrator 25.3.1, SVG Export Plug-In . SVG Version: 6.00 Build 0)  -->
<svg version="1.1" id="Camada_1" xmlns="http://www.w3.org/2000/svg" xmlns:xlink="http://www.w3.org/1999/xlink" x="0px" y="0px"
	 viewBox="0 0 595.3 600.7" style="enable-background:new 0 0 595.3 600.7;" xml:space="preserve">
<style type="text/css">
	.st0{fill:#FAB717;}
</style>
<path class="st0" d="M298.5,6C139.2,5.7,4.5,133.7,3.4,299.6C3.1,461.7,134.6,593.6,296.7,594c162.8,0.4,294.7-130.9,295-293.3
	C592.1,136.2,458.4,6.4,298.5,6z M203.1,429.4c0,1.1,0,2.1,0,2.8c0,4.6,0,4.6-4.3,4.6c-0.7,0-1.4,0-2.5,0c-18.4,0-36.9,0-55.3,0
	c-4.6,0-4.6,0-4.6-5c0-68.4,0-136.5,0-205c0-1.1,0-2.1,0-2.8c0-1.8,1.1-2.5,2.5-2.5c0.7,0,1.4,0,2.5,0c19.1,0,37.9,0,57.1,0
	c4.6,0,5,0,5,5c0,34.4,0,68.4,0,102.8C203.1,362.8,203.1,396.1,203.1,429.4z M182.1,193.3c-7.8,2.5-16,2.8-24.1,0.4
	c-15.2-4.3-24.8-18.4-23.8-34c1.1-16,12.8-28.7,28.7-30.9c2.5-0.4,5-0.4,6.4-0.4c19.5,0.4,32.3,10.6,35.1,28
	C207.3,173,198.5,188.3,182.1,193.3z M461.2,430.9c0,0.7,0,1.1,0,1.8c0,4.3,0,4.3-4.3,4.3c-19.1,0-37.9,0-57.1,0
	c-5.7,0-5.3,0.7-5.3-5.3c0-37.6,0-74.8,0-112.4c0-7.4-0.7-14.5-2.5-21.6c-1.1-4.6-2.8-9.2-5.3-13.1c-5-7.4-12.1-12.1-20.9-12.8
	c-22-2.5-40.1,12.8-41.5,34.8c-0.4,4.3-0.4,8.9-0.4,13.1c0,36.9,0,74.1,0,111c0,7.1,0.7,6.4-6.4,6.4c-18.4,0-36.9,0-55.3,0
	c-6,0-5.3,0-5.3-5.3c0-52.5,0-105,0-157.5c0-16-1.1-31.6-1.4-47.5c0-4.6,0-4.6,4.3-4.6c16.3,0,33,0,49.3,0c4.3,0,4.3,0,5,4.6
	c0.7,8.2,1.8,16.3,2.5,25.2c2.5-0.7,2.8-2.1,3.5-3.2c18.8-24.1,44-33.3,73.8-30.9c8.9,0.7,17.4,3.2,25.5,7.1
	c18.4,9.2,29.4,24.1,35.8,43.3c4.6,13.5,6,27.7,6,42.2C461.2,350.4,461.2,390.4,461.2,430.9z"/>
</svg>
